<mxfile host="app.diagrams.net" modified="2021-05-21T13:32:32.655Z" agent="5.0 (X11; CrOS aarch64 13816.82.0) AppleWebKit/537.36 (KHTML, like Gecko) Chrome/90.0.4430.218 Safari/537.36" etag="KfLScqrcD2GvakZrleoz" version="14.6.13" type="github">
  <diagram id="_YdvgRkyX9-HlAKa8x6V" name="Page-1">
    <mxGraphModel dx="582" dy="383" grid="1" gridSize="10" guides="1" tooltips="1" connect="1" arrows="1" fold="1" page="1" pageScale="1" pageWidth="850" pageHeight="1100" math="0" shadow="0">
      <root>
        <mxCell id="0" />
        <mxCell id="1" parent="0" />
        <mxCell id="WUUoYc_IsrIHNogeIYJ5-9" style="edgeStyle=orthogonalEdgeStyle;rounded=0;orthogonalLoop=1;jettySize=auto;html=1;exitX=0.5;exitY=1;exitDx=0;exitDy=0;entryX=0.5;entryY=0;entryDx=0;entryDy=0;" edge="1" parent="1" source="WUUoYc_IsrIHNogeIYJ5-1" target="WUUoYc_IsrIHNogeIYJ5-3">
          <mxGeometry relative="1" as="geometry" />
        </mxCell>
        <mxCell id="WUUoYc_IsrIHNogeIYJ5-10" style="edgeStyle=orthogonalEdgeStyle;rounded=0;orthogonalLoop=1;jettySize=auto;html=1;exitX=0.5;exitY=1;exitDx=0;exitDy=0;entryX=0.5;entryY=0;entryDx=0;entryDy=0;" edge="1" parent="1" source="WUUoYc_IsrIHNogeIYJ5-1" target="WUUoYc_IsrIHNogeIYJ5-4">
          <mxGeometry relative="1" as="geometry" />
        </mxCell>
        <mxCell id="WUUoYc_IsrIHNogeIYJ5-1" value="RGB values" style="rounded=0;whiteSpace=wrap;html=1;" vertex="1" parent="1">
          <mxGeometry x="240" y="170" width="120" height="60" as="geometry" />
        </mxCell>
        <mxCell id="WUUoYc_IsrIHNogeIYJ5-8" style="edgeStyle=orthogonalEdgeStyle;rounded=0;orthogonalLoop=1;jettySize=auto;html=1;exitX=0.5;exitY=1;exitDx=0;exitDy=0;entryX=0.5;entryY=0;entryDx=0;entryDy=0;" edge="1" parent="1" source="WUUoYc_IsrIHNogeIYJ5-3" target="WUUoYc_IsrIHNogeIYJ5-6">
          <mxGeometry relative="1" as="geometry" />
        </mxCell>
        <mxCell id="WUUoYc_IsrIHNogeIYJ5-3" value="Process" style="rounded=0;whiteSpace=wrap;html=1;" vertex="1" parent="1">
          <mxGeometry x="150" y="280" width="120" height="60" as="geometry" />
        </mxCell>
        <mxCell id="WUUoYc_IsrIHNogeIYJ5-11" style="edgeStyle=orthogonalEdgeStyle;rounded=0;orthogonalLoop=1;jettySize=auto;html=1;exitX=0.5;exitY=1;exitDx=0;exitDy=0;entryX=0.5;entryY=0;entryDx=0;entryDy=0;" edge="1" parent="1" source="WUUoYc_IsrIHNogeIYJ5-4" target="WUUoYc_IsrIHNogeIYJ5-7">
          <mxGeometry relative="1" as="geometry" />
        </mxCell>
        <mxCell id="WUUoYc_IsrIHNogeIYJ5-4" value="Output" style="rounded=0;whiteSpace=wrap;html=1;" vertex="1" parent="1">
          <mxGeometry x="320" y="280" width="120" height="60" as="geometry" />
        </mxCell>
        <mxCell id="WUUoYc_IsrIHNogeIYJ5-6" value="for colour in range of 255" style="rounded=0;whiteSpace=wrap;html=1;" vertex="1" parent="1">
          <mxGeometry x="150" y="370" width="120" height="60" as="geometry" />
        </mxCell>
        <mxCell id="WUUoYc_IsrIHNogeIYJ5-7" value="Display colour numbers (0,0,0)" style="rounded=0;whiteSpace=wrap;html=1;" vertex="1" parent="1">
          <mxGeometry x="320" y="370" width="120" height="60" as="geometry" />
        </mxCell>
      </root>
    </mxGraphModel>
  </diagram>
</mxfile>
